<svg version="1.0" xmlns="http://www.w3.org/2000/svg" width="300.000000pt" height="300.000000pt" viewBox="0 0 300.000000 300.000000" preserveAspectRatio="xMidYMid meet">  <g transform="translate(0.000000,300.000000) scale(0.050000,-0.050000)" fill="#000000" stroke="none"> <path d="M2690 5387 c-472 -99 -875 -504 -927 -931 -19 -161 -14 -176 58 -176 63 0 62 -3 98 206 188 1089 1996 1046 2164 -51 33 -214 157 -251 157 -47 0 671 -765 1164 -1550 999z"/> <path d="M1417 4509 c-535 -97 -661 -358 -237 -490 770 -241 3160 -222 3726 29 351 154 223 346 -303 455 -210 43 -263 37 -263 -33 0 -42 14 -50 115 -69 182 -36 438 -118 464 -150 145 -174 -1605 -320 -2799 -232 -551 40 -1040 144 -1040 221 0 29 195 98 380 135 190 37 239 67 214 132 -15 39 -51 39 -257 2z"/> <path d="M4151 3769 c-37 -38 -47 -742 -10 -810 26 -50 92 -50 118 -1 34 64 18 799 -19 822 -41 26 -52 25 -89 -11z"/> <path d="M1761 3741 c-13 -23 -21 -201 -21 -439 l0 -400 -95 31 c-229 75 -277 2 -113 -173 247 -264 654 -391 1013 -315 132 28 135 27 178 -18 118 -125 354 -139 509 -30 88 62 93 63 214 43 282 -45 489 -17 727 100 351 172 566 518 256 413 -267 -91 -472 -58 -730 118 -316 215 -466 248 -626 140 l-72 -49 -86 49 c-167 96 -311 65 -578 -123 -158 -112 -320 -188 -397 -188 -39 0 -40 14 -40 401 0 415 -11 479 -80 479 -21 0 -48 -17 -59 -39z m1134 -692 c289 -330 -487 -636 -988 -389 -156 77 -160 100 -17 100 184 0 328 65 628 282 148 108 287 111 377 7z m619 -39 c239 -168 365 -227 551 -257 l165 -27 -132 -64 c-281 -135 -690 -112 -940 52 l-72 47 5 145 c8 251 160 289 423 104z m-453 -418 c32 -27 69 -52 83 -58 49 -17 -17 -58 -112 -69 -183 -20 -248 40 -132 122 89 63 93 63 161 5z"/> <path d="M2089 3651 c-103 -103 -33 -271 112 -271 102 0 159 54 159 151 0 92 -73 169 -160 169 -39 0 -80 -18 -111 -49z"/> <path d="M3689 3651 c-105 -105 -35 -271 114 -271 90 0 157 67 157 157 0 85 -76 163 -160 163 -39 0 -80 -18 -111 -49z"/> <path d="M4153 2435 c-70 -51 11 -577 119 -773 l48 -87 -72 -80 c-66 -72 -72 -89 -63 -168 l10 -87 -94 0 c-51 0 -111 13 -132 29 -84 64 -194 15 -150 -66 51 -96 15 -207 -78 -240 -67 -23 -71 -20 -90 69 -62 290 -460 119 -427 -183 12 -111 -185 -47 -266 86 -43 70 -75 104 -98 104 -37 0 -69 -47 -69 -102 -1 -74 -98 -157 -184 -157 -42 0 -47 9 -47 81 0 223 -237 338 -419 203 l-56 -41 -22 49 c-34 74 -27 207 16 302 51 113 28 130 -151 114 -83 -7 -160 -3 -194 10 l-56 22 50 85 c93 158 186 740 129 809 -82 98 -126 13 -157 -304 -26 -265 -71 -420 -149 -512 -63 -75 -64 -99 -6 -154 65 -60 180 -104 277 -104 l83 0 -14 -89 c-39 -262 129 -460 284 -332 161 133 302 16 217 -181 -58 -135 394 -114 478 21 10 17 23 15 48 -7 146 -132 523 -143 494 -14 -33 143 -35 186 -12 242 45 109 113 65 124 -80 13 -188 399 -79 452 127 16 60 23 64 135 75 223 24 292 76 238 179 -45 89 -17 144 90 176 113 34 117 63 26 187 -110 147 -144 248 -167 494 -31 315 -54 363 -145 297z"/> </g> </svg>