<?xml version="1.0" ?><!DOCTYPE svg  PUBLIC '-//W3C//DTD SVG 1.1//EN'  'http://www.w3.org/Graphics/SVG/1.1/DTD/svg11.dtd'><svg enable-background="new 0 0 512 512" id="Layer_1" version="1.1" viewBox="0 0 512 512" xml:space="preserve" xmlns="http://www.w3.org/2000/svg" xmlns:xlink="http://www.w3.org/1999/xlink"><g><path d="M119.9,94.8c5.5,16.3,10.6,31.8,15.8,47.2c6.6,19.8,13.3,39.6,19.9,59.5c8.2,24.6,16.5,49.2,24.7,73.7   c9.7,28.9,19.5,57.9,29.2,86.8c0.9,2.8,1.8,5.7,3,8.4c0.5,1,1.7,1.7,2.6,2.6c0.7-0.8,1.8-1.5,2.2-2.4c4.2-12.6,8.3-25.2,12.5-37.8   c5.7-17,11.4-34,17.1-50.9c4.3-12.9,8.5-25.8,12.9-38.7c3.6-10.8,7.1-21.7,11.1-32.3c2.5-6.6-1.1-11.7-2.9-17.1   c-5.4-15.8-11.2-31.5-16.9-47.2c-6-16.5-11.9-33-18.2-49.4c-0.5-1.3-3-2.4-4.7-2.6c-7.3-0.9-14.6-1.4-21.9-2.1   c-7.7-0.8-12-5.1-11.4-11.1c0.6-6.3,5.3-9.8,12.9-9.4c19.6,1,39.3,2.9,58.9,2.8c25-0.1,49.9-1.8,74.9-2.9c6.2-0.3,9.8,1.7,11.4,6   c2.6,7.2-1.1,13.4-9.1,14.4c-8.1,1-16.3,1.5-24.4,2.2c-1.4,0.1-2.8,0.4-4.7,0.7c3.3,10.1,6.4,19.7,9.6,29.2   c3.4,10.2,6.9,20.4,10.3,30.5c4.8,14.2,9.7,28.5,14.4,42.7c3.3,9.7,6.3,19.5,9.6,29.2c4.6,13.8,9.3,27.6,14,41.4   c4.3,12.9,8.6,25.8,13,38.6c4.7,14.1,9.5,28.3,14.3,42.4c2.2,6.4,4.3,12.9,6.6,19.3c0.4,1,1.4,1.8,2.1,2.7c0.6-0.8,1.5-1.6,1.8-2.5   c2.7-8.3,5.3-16.7,7.9-25.1c7.6-24,15.1-48.1,22.9-72.1c8.6-26.4,15.8-52.9,13-81.2c-1.8-18-7.6-34.7-16.2-50.4   c-7.6-13.9-16.4-27.3-23.4-41.6c-9.7-19.5-10.2-39.1,4.4-57c10.3-12.7,24.3-16.9,40.2-15.4c21.2,2,36.8,15.7,43.6,37.6   c3.8,12.4,5.2,25,5.6,37.9c0.9,33.3-3.8,65.7-14.9,97.1c-9.7,27.2-19.2,54.5-28.7,81.8c-10.5,30.1-20.8,60.3-31.2,90.4   c-6.4,18.7-13,37.3-19.5,55.9c-5,14.6-9.8,29.2-15.1,43.7c-3.1,8.4-3.4,8.3-12,8.3c-13.9,0-14.2,0.1-19.1-12.8   c-9.2-24-18.1-48-27-72.1c-7.7-20.8-15.4-41.6-23-62.5c-6.4-17.6-12.5-35.2-18.9-52.8c-4-11.2-8.1-22.4-12.3-33.6   c-0.4-1.1-1.6-1.9-2.4-2.8c-0.9,1-2.3,1.8-2.7,3c-7.4,21.5-14.6,43-21.9,64.5c-8,23.6-16.1,47.3-24.2,70.9   c-7.8,22.7-15.8,45.3-23.8,68c-3,8.6-6.3,17.1-9.3,25.8c-1.1,3.1-2.7,4.7-6.1,4.6c-4.8-0.2-9.7-0.2-14.5,0.2   c-3.8,0.3-5.8-1.2-7-4.7c-15.5-43-31-86-46.6-128.9c-11.1-30.6-22.4-61.1-33.5-91.7c-10.9-29.8-21.6-59.6-32.4-89.4   c-7-19.4-14-38.7-21.3-58c-0.6-1.6-3.3-3.3-5.2-3.4c-6.1-0.5-12.3-0.1-18.5-0.4C8.7,101.7,3,96,3.2,88.4   c0.2-7.5,6.4-13.1,14.7-13.2c28.8-0.3,57.6-0.4,86.5-1.1c14.5-0.3,28.9-1.6,43.4-2.6c4.7-0.3,8.2,1.5,10.4,5.5   c2,3.7,1.8,7.9-1.2,10.7c-2.4,2.2-5.9,3.8-9.1,4.3c-7.2,1.1-14.6,1.4-21.9,2C124.1,94.2,122.4,94.5,119.9,94.8z"/></g></svg>